<?xml version="1.0" encoding="UTF-8"?>
<!DOCTYPE svg PUBLIC "-//W3C//DTD SVG 1.1//EN" "http://www.w3.org/Graphics/SVG/1.1/DTD/svg11.dtd">
<!-- Creator: CorelDRAW -->
<svg xmlns="http://www.w3.org/2000/svg" xml:space="preserve" width="0.0446969in" height="0.0595394in" version="1.1" style="shape-rendering:geometricPrecision; text-rendering:geometricPrecision; image-rendering:optimizeQuality; fill-rule:evenodd; clip-rule:evenodd"
viewBox="0 0 0.95 1.27"
 xmlns:xlink="http://www.w3.org/1999/xlink"
 xmlns:xodm="http://www.corel.com/coreldraw/odm/2003">
 <defs>
  <style type="text/css">
   <![CDATA[
    .fil0 {fill:#EF4136}
   ]]>
  </style>
 </defs>
 <g id="Layer_x0020_1">
  <metadata id="CorelCorpID_0Corel-Layer"/>
  <path class="fil0" d="M0.51 1.26c-0,0 -0.01,0.01 -0.02,0.01 -0.01,0 -0.01,-0 -0.02,-0 -0.11,-0.07 -0.2,-0.15 -0.28,-0.25 -0.1,-0.13 -0.17,-0.27 -0.19,-0.4 -0.02,-0.14 -0,-0.27 0.07,-0.38 0.03,-0.04 0.06,-0.08 0.1,-0.12 0.1,-0.08 0.21,-0.12 0.32,-0.12 0.11,0 0.21,0.04 0.3,0.12 0.03,0.03 0.06,0.06 0.08,0.1 0.07,0.12 0.09,0.28 0.06,0.43 -0.05,0.25 -0.21,0.47 -0.43,0.61l-0 0zm-0.03 -1.02c0,0 0,0 0,0 0.13,0 0.24,0.11 0.24,0.24 0,0.13 -0.11,0.24 -0.24,0.24 -0.13,0 -0.24,-0.11 -0.24,-0.24 0,0 0,0 0,0 0,-0.13 0.11,-0.24 0.24,-0.24l-0 0z"/>
 </g>
</svg>
