<?xml version="1.0" encoding="UTF-8"?>
<!DOCTYPE svg PUBLIC "-//W3C//DTD SVG 1.1//EN" "http://www.w3.org/Graphics/SVG/1.1/DTD/svg11.dtd">
<!-- Creator: CorelDRAW -->
<svg xmlns="http://www.w3.org/2000/svg" xml:space="preserve" width="1.53367in" height="0.169417in" version="1.1" style="shape-rendering:geometricPrecision; text-rendering:geometricPrecision; image-rendering:optimizeQuality; fill-rule:evenodd; clip-rule:evenodd"
viewBox="0 0 1091.81 120.61"
 xmlns:xlink="http://www.w3.org/1999/xlink"
 xmlns:xodm="http://www.corel.com/coreldraw/odm/2003"
 data-name="Layer 1">
 <defs>
  <style type="text/css">
   <![CDATA[
    .fil0 {fill:#E5E8F5}
    .fil1 {fill:#EF4136}
    .fil2 {fill:#FB8343}
    .fil3 {fill:white;fill-rule:nonzero}
   ]]>
  </style>
 </defs>
 <g id="Layer_x0020_1">
  <metadata id="CorelCorpID_0Corel-Layer"/>
  <rect class="fil0" x="-0" width="946.67" height="120.61" rx="22.65" ry="22.65"/>
  <g id="_1428370384">
   <path class="fil1" d="M37.63 79.67c-0.16,0.12 -0.36,0.18 -0.56,0.18 -0.18,0 -0.36,-0.05 -0.51,-0.15 -3.54,-2.23 -6.68,-5.05 -9.31,-8.31 -3.4,-4.26 -5.52,-8.97 -6.27,-13.51 -0.75,-4.61 -0.05,-9.04 2.24,-12.65 0.93,-1.46 2.11,-2.77 3.47,-3.84 3.23,-2.58 6.93,-3.94 10.61,-3.92 3.55,0.03 7.05,1.35 10.07,4.11 1.05,0.96 1.95,2.06 2.69,3.27 2.47,4.06 3,9.24 1.91,14.48 -1.83,8.44 -7.01,15.77 -14.34,20.32l-0 0.01zm-1.03 -34c0.01,0 0.01,0 0.02,0 4.38,0 7.93,3.55 7.93,7.93 0,4.38 -3.55,7.93 -7.93,7.93 -4.38,0 -7.93,-3.55 -7.93,-7.93 0,0 0,0 0,0 0,-4.38 3.55,-7.93 7.92,-7.93l-0.01 0z"/>
  </g>
  <g id="_1428371200">
   <path class="fil2" d="M992.37 0l76.8 0c12.46,0 22.64,10.19 22.64,22.64l0 75.32c0,12.45 -10.19,22.64 -22.64,22.64l-76.8 0c-12.45,0 -22.64,-10.19 -22.64,-22.64l0 -75.32c0,-12.46 10.19,-22.64 22.64,-22.64z"/>
   <g>
    <path class="fil3" d="M1023.86 24.17l0.01 0 0 0.01c8.33,0 15.86,3.38 21.32,8.83 5.45,5.45 8.82,12.98 8.82,21.3l0.01 0 0 0.02 0 0.03 -0.01 0c-0,3.35 -0.55,6.58 -1.56,9.59 -0.17,0.5 -0.35,0.99 -0.53,1.45l0 0.01c-0.87,2.21 -2,4.3 -3.35,6.22l17.55 15.77 0.01 0.01 0.1 0.09 0.01 0.01c0.99,0.94 1.53,2.21 1.6,3.49 0.07,1.27 -0.33,2.56 -1.19,3.6l-0.01 0.01 -0.11 0.12 -0.02 0.02 -0.09 0.1 -0.01 0.01c-0.94,0.99 -2.21,1.53 -3.49,1.6 -1.27,0.07 -2.56,-0.33 -3.6,-1.19l-0.01 -0.01 -0.12 -0.11 -0.02 -0.01 -17.95 -16.13c-0.53,0.38 -1.07,0.73 -1.62,1.07 -0.74,0.46 -1.51,0.89 -2.3,1.28 -4.04,2.02 -8.61,3.15 -13.44,3.15l0 0 -0.01 0 0 -0.01c-8.32,-0 -15.86,-3.38 -21.32,-8.83 -5.45,-5.45 -8.82,-12.98 -8.82,-21.3l-0.01 0 0 -0.02 0 -0.01 0.01 0c0,-8.32 3.38,-15.86 8.83,-21.32 5.45,-5.44 12.98,-8.82 21.3,-8.82l0 -0.01 0.02 0 0 0zm0.01 6.76l0 0.01 -0.01 0 -0.02 0 0 -0.01c-6.45,0.01 -12.29,2.63 -16.52,6.85 -4.23,4.23 -6.85,10.08 -6.85,16.53l0.01 0 0 0.01 0 0.02 -0.01 0c0.01,6.45 2.62,12.29 6.85,16.52 4.23,4.23 10.08,6.85 16.53,6.85l0 -0.01 0.01 0 0.02 0 0 0.01c6.45,-0.01 12.29,-2.62 16.52,-6.85 4.23,-4.23 6.85,-10.08 6.85,-16.53l-0 0 0 -0.01 0 -0.02 0 0c-0,-6.45 -2.62,-12.29 -6.85,-16.52 -4.23,-4.23 -10.08,-6.85 -16.53,-6.86l0 0z"/>
   </g>
  </g>
 </g>
</svg>
