<?xml version="1.0" encoding="UTF-8"?>
<!DOCTYPE svg PUBLIC "-//W3C//DTD SVG 1.1//EN" "http://www.w3.org/Graphics/SVG/1.1/DTD/svg11.dtd">
<!-- Creator: CorelDRAW -->
<svg xmlns="http://www.w3.org/2000/svg" xml:space="preserve" width="0.104134in" height="0.101528in" version="1.1" style="shape-rendering:geometricPrecision; text-rendering:geometricPrecision; image-rendering:optimizeQuality; fill-rule:evenodd; clip-rule:evenodd"
viewBox="0 0 17.01 16.59"
 xmlns:xlink="http://www.w3.org/1999/xlink"
 xmlns:xodm="http://www.corel.com/coreldraw/odm/2003">
 <defs>
  <style type="text/css">
   <![CDATA[
    .fil0 {fill:white;fill-rule:nonzero}
   ]]>
  </style>
 </defs>
 <g id="Layer_x0020_1">
  <metadata id="CorelCorpID_0Corel-Layer"/>
  <g id="_1416582128">
   <path class="fil0" d="M6.92 0l0 0 0 0c1.91,0 3.64,0.78 4.89,2.03 1.25,1.25 2.02,2.98 2.02,4.89l0 0 0 0 0 0.01 -0 0c-0,0.77 -0.13,1.51 -0.36,2.2 -0.04,0.12 -0.08,0.23 -0.12,0.33l0 0c-0.2,0.51 -0.46,0.99 -0.77,1.43l4.03 3.62 0 0 0.02 0.02 0 0c0.23,0.22 0.35,0.51 0.37,0.8 0.02,0.29 -0.08,0.59 -0.27,0.83l-0 0 -0.02 0.03 -0 0 -0.02 0.02 -0 0c-0.22,0.23 -0.51,0.35 -0.8,0.37 -0.29,0.02 -0.59,-0.07 -0.83,-0.27l-0 -0 -0.03 -0.02 -0 -0 -4.12 -3.7c-0.12,0.09 -0.25,0.17 -0.37,0.24 -0.17,0.1 -0.35,0.2 -0.53,0.29 -0.93,0.46 -1.98,0.72 -3.08,0.72l0 0 -0 0 0 -0c-1.91,-0 -3.64,-0.78 -4.89,-2.03 -1.25,-1.25 -2.02,-2.98 -2.02,-4.89l-0 0 0 -0.01 0 -0 0 0c0,-1.91 0.78,-3.64 2.03,-4.89 1.25,-1.25 2.98,-2.02 4.89,-2.02l0 -0 0 0 0 0zm0 1.55l0 0 -0 0 -0 0 0 -0c-1.48,0 -2.82,0.6 -3.79,1.57 -0.97,0.97 -1.57,2.31 -1.57,3.79l0 0 0 0 0 0 -0 0c0,1.48 0.6,2.82 1.57,3.79 0.97,0.97 2.31,1.57 3.79,1.57l0 -0 0 0 0 0 0 0c1.48,-0 2.82,-0.6 3.79,-1.57 0.97,-0.97 1.57,-2.31 1.57,-3.79l-0 0 0 -0 0 -0 0 0c-0,-1.48 -0.6,-2.82 -1.57,-3.79 -0.97,-0.97 -2.31,-1.57 -3.79,-1.57l0 0z"/>
  </g>
 </g>
</svg>
