<?xml version="1.0" encoding="UTF-8"?>
<!DOCTYPE svg PUBLIC "-//W3C//DTD SVG 1.1//EN" "http://www.w3.org/Graphics/SVG/1.1/DTD/svg11.dtd">
<!-- Creator: CorelDRAW -->
<svg xmlns="http://www.w3.org/2000/svg" xml:space="preserve" width="2.56441in" height="0.565106in" version="1.1" style="shape-rendering:geometricPrecision; text-rendering:geometricPrecision; image-rendering:optimizeQuality; fill-rule:evenodd; clip-rule:evenodd"
viewBox="0 0 515.09 113.51"
 xmlns:xlink="http://www.w3.org/1999/xlink"
 xmlns:xodm="http://www.corel.com/coreldraw/odm/2003">
 <defs>
  <style type="text/css">
   <![CDATA[
    .fil4 {fill:black}
    .fil3 {fill:#B3DBF3}
    .fil1 {fill:#FB8343}
    .fil2 {fill:#FBAB53}
    .fil0 {fill:black;fill-rule:nonzero}
    .fil5 {fill:#FB8343;fill-rule:nonzero}
   ]]>
  </style>
 </defs>
 <g id="Layer_x0020_1">
  <metadata id="CorelCorpID_0Corel-Layer"/>
  <g id="_1382644544">
   <path class="fil0" d="M482.15 78.46l-29.15 0c0.21,3.41 1.22,6.08 3.05,8 1.81,1.92 4.24,2.87 7.27,2.87 2.69,0 4.94,-0.56 6.72,-1.69 1.8,-1.13 3.36,-2.95 4.7,-5.47l7.01 3.93c-2.05,3.68 -4.58,6.39 -7.61,8.19 -3.02,1.8 -6.58,2.69 -10.65,2.69 -5.86,0 -10.5,-1.79 -13.97,-5.34 -3.45,-3.57 -5.19,-8.32 -5.19,-14.27 0,-5.72 1.79,-10.41 5.37,-14.1 3.57,-3.68 8.17,-5.51 13.79,-5.51 5.87,0 10.45,1.68 13.73,5.04 3.28,3.35 4.92,8.06 4.92,14.1l0 1.58zm-8.66 -5.59c-0.33,-2.61 -1.33,-4.61 -2.99,-5.97 -1.67,-1.38 -3.95,-2.06 -6.84,-2.06 -2.74,0 -4.95,0.67 -6.62,2 -1.65,1.34 -2.82,3.35 -3.49,6.04l19.94 0z"/>
   <path class="fil0" d="M365.33 95.47l-8.35 0 0 -4.71c-1.48,2.09 -3.23,3.65 -5.21,4.67 -2,1.02 -4.27,1.54 -6.84,1.54 -5.15,0 -9.22,-1.76 -12.17,-5.29 -2.97,-3.52 -4.45,-8.35 -4.45,-14.48 0,-5.82 1.51,-10.52 4.54,-14.09 3.03,-3.58 6.98,-5.37 11.86,-5.37 2.98,0 5.53,0.62 7.64,1.86 2.11,1.23 3.66,3.02 4.63,5.34l0 -5.95 8.35 0 0 36.47zm-8.11 -18.35c0,-3.77 -0.88,-6.71 -2.64,-8.81 -1.76,-2.11 -4.21,-3.16 -7.37,-3.16 -3.16,0 -5.64,1.09 -7.44,3.26 -1.81,2.17 -2.72,5.19 -2.72,9.03 0,3.87 0.87,6.87 2.61,8.97 1.75,2.11 4.21,3.16 7.39,3.16 3.01,0 5.45,-1.14 7.33,-3.43 1.89,-2.28 2.84,-5.29 2.84,-9.02z"/>
   <path class="fil0" d="M322.31 78.46l-29.15 0c0.21,3.41 1.22,6.08 3.05,8 1.81,1.92 4.24,2.87 7.27,2.87 2.69,0 4.94,-0.56 6.72,-1.69 1.8,-1.13 3.36,-2.95 4.7,-5.47l7.01 3.93c-2.05,3.68 -4.58,6.39 -7.61,8.19 -3.02,1.8 -6.58,2.69 -10.65,2.69 -5.86,0 -10.5,-1.79 -13.97,-5.34 -3.45,-3.57 -5.19,-8.32 -5.19,-14.27 0,-5.72 1.79,-10.41 5.37,-14.1 3.57,-3.68 8.17,-5.51 13.79,-5.51 5.87,0 10.45,1.68 13.73,5.04 3.28,3.35 4.92,8.06 4.92,14.1l0 1.58zm-8.66 -5.59c-0.33,-2.61 -1.33,-4.61 -2.99,-5.97 -1.67,-1.38 -3.95,-2.06 -6.84,-2.06 -2.74,0 -4.95,0.67 -6.62,2 -1.65,1.34 -2.82,3.35 -3.49,6.04l19.94 0z"/>
   <path class="fil1" d="M40.73 0c8.74,0 16.83,2.75 23.47,7.44 -13.17,3.93 -22.65,14.9 -22.65,27.82 0,0.13 0,0.26 0.01,0.39l-0.39 -0c-13.55,0 -25.22,7.11 -30.45,17.32 -3.09,-1.29 -6.48,-2.11 -10.06,-2.35l0.06 0.47c-0.48,-3.58 -0.72,-7.07 -0.72,-10.35 0,-22.5 18.24,-40.73 40.73,-40.73z"/>
   <path class="fil2" d="M64.2 7.44c10.44,7.37 17.27,19.54 17.27,33.3 0,19.54 -19.02,46.79 -38.75,53.62 -0.51,0.02 -1.03,0.03 -1.55,0.03 -6.93,0 -13.36,-1.86 -18.69,-5.04 -0.59,0.81 -1.24,1.58 -1.93,2.32 -11.25,-7.89 -17.88,-25.35 -19.89,-41.06 3.58,0.24 6.97,1.06 10.06,2.35 5.23,-10.21 16.89,-17.32 30.45,-17.32l0.39 0c-0,-0.13 -0.01,-0.26 -0.01,-0.39 0,-12.92 9.48,-23.89 22.65,-27.82z"/>
   <path class="fil3" d="M81.24 36.37c0.15,1.43 0.23,2.89 0.23,4.36 0,22.5 -25.22,55.23 -47.71,55.23 -12.3,0 -21.25,-9.79 -26.82,-22.34 3.6,-2.38 8.08,-3.79 12.94,-3.79 3.31,0 6.44,0.66 9.24,1.83 3.94,-7.7 12.75,-13.07 22.97,-13.07l0.29 0c-0,-0.1 -0,-0.19 -0,-0.29 0,-12.24 11.27,-22.16 25.18,-22.16 1.25,0 2.48,0.08 3.68,0.24z"/>
   <path class="fil4" d="M22.42 103.54l13.55 1.8c0.6,0.08 1.17,0.68 0.95,1.24l-2.42 5.98c-0.23,0.56 -0.64,1.03 -1.24,0.95l-10.2 -1.35c-0.6,-0.08 -0.86,-0.64 -0.95,-1.24l-0.93 -6.43c-0.09,-0.6 0.64,-1.03 1.24,-0.95z"/>
   <path class="fil0" d="M499.18 64.83c0.91,-2.42 2.09,-4.2 3.56,-5.36 1.48,-1.16 3.31,-1.73 5.5,-1.73 1.18,0 2.34,0.14 3.48,0.42 1.14,0.28 2.27,0.7 3.37,1.22l-3.01 7.1c-0.72,-0.51 -1.5,-0.89 -2.32,-1.13 -0.84,-0.25 -1.77,-0.37 -2.8,-0.37 -2.78,0 -4.77,1.1 -5.97,3.32 -1.21,2.22 -1.81,5.95 -1.81,11.17l0 15.99 -8.35 0 0 -36.55 8.35 0 0 5.91z"/>
   <path class="fil0" d="M400.72 95.47l0 -59.63 7.85 0 0 29.15c1.67,-2.52 3.62,-4.36 5.88,-5.51 2.26,-1.16 5,-1.73 8.24,-1.73 2.72,0 5.03,0.43 6.94,1.29 1.9,0.87 3.4,2.14 4.48,3.83 0.64,1 1.1,2.17 1.39,3.51 0.28,1.33 0.42,3.66 0.42,7l0 22.11 -8.43 0 0 -18.72c0,-4.79 -0.58,-7.98 -1.75,-9.56 -1.17,-1.58 -3.24,-2.36 -6.22,-2.36 -1.94,0 -3.69,0.36 -5.21,1.08 -1.52,0.72 -2.73,1.73 -3.6,3.03 -0.62,0.88 -1.05,2 -1.29,3.37 -0.25,1.37 -0.37,3.55 -0.37,6.55l0 16.61 -8.35 0z"/>
   <polygon class="fil0" points="378.8,95.47 378.8,66.33 372.42,66.33 372.42,59 378.8,59 378.8,45.22 387.15,45.22 387.15,59 393.53,59 393.53,66.33 387.15,66.33 387.15,95.47 "/>
   <path class="fil0" d="M211.53 39.15l9.05 0 10.66 28.44c0.68,1.86 1.27,3.5 1.75,4.92 0.47,1.41 0.89,2.73 1.25,3.95 0.91,-2.97 1.84,-5.88 2.81,-8.73 0.13,-0.35 0.22,-0.6 0.28,-0.72l11.3 -30.06 11.92 30.64c0.56,1.48 1.1,2.97 1.6,4.45 0.5,1.5 0.97,2.99 1.41,4.5 0.25,-1.16 0.6,-2.42 1.04,-3.81 0.43,-1.38 1,-3.02 1.69,-4.92l10.58 -28.66 9.11 0 -21.81 58.53 -12.85 -32.14c-0.56,-1.43 -1.08,-2.81 -1.54,-4.14 -0.46,-1.31 -0.88,-2.57 -1.23,-3.74 -0.43,1.51 -0.87,2.93 -1.31,4.24 -0.43,1.33 -0.88,2.59 -1.34,3.79l-12.62 31.98 -21.74 -58.53z"/>
   <polygon class="fil0" points="167.97,95.47 167.97,56.64 181.68,56.64 181.68,95.47 "/>
   <path class="fil5" d="M167.26 44.51c0,-2.07 0.73,-3.83 2.22,-5.29 1.47,-1.46 3.24,-2.19 5.33,-2.19 2.15,0 3.95,0.72 5.4,2.15 1.46,1.43 2.18,3.2 2.18,5.33 0,2.13 -0.74,3.93 -2.22,5.41 -1.47,1.48 -3.26,2.23 -5.36,2.23 -2.06,0 -3.83,-0.76 -5.32,-2.27 -1.48,-1.51 -2.23,-3.3 -2.23,-5.37z"/>
   <polygon class="fil0" points="105.36,95.47 105.36,39.15 120.72,39.15 120.72,61.05 141.2,61.05 141.2,39.15 156.56,39.15 156.56,95.47 141.2,95.47 141.2,72.55 120.72,72.55 120.72,95.47 "/>
  </g>
 </g>
</svg>
