<?xml version="1.0" encoding="UTF-8"?>
<!DOCTYPE svg PUBLIC "-//W3C//DTD SVG 1.1//EN" "http://www.w3.org/Graphics/SVG/1.1/DTD/svg11.dtd">
<!-- Creator: CorelDRAW -->
<svg xmlns="http://www.w3.org/2000/svg" xml:space="preserve" width="0.405594in" height="0.565106in" version="1.1" style="shape-rendering:geometricPrecision; text-rendering:geometricPrecision; image-rendering:optimizeQuality; fill-rule:evenodd; clip-rule:evenodd"
viewBox="0 0 12.89 17.95"
 xmlns:xlink="http://www.w3.org/1999/xlink"
 xmlns:xodm="http://www.corel.com/coreldraw/odm/2003">
 <defs>
  <style type="text/css">
   <![CDATA[
    .fil3 {fill:black}
    .fil2 {fill:#B3DBF3}
    .fil0 {fill:#FB8343}
    .fil1 {fill:#FBAB53}
   ]]>
  </style>
 </defs>
 <g id="Layer_x0020_1">
  <metadata id="CorelCorpID_0Corel-Layer"/>
  <g id="_2534267040">
   <path class="fil0" d="M6.44 0c1.38,0 2.66,0.44 3.71,1.18 -2.08,0.62 -3.58,2.36 -3.58,4.4 0,0.02 0,0.04 0,0.06l-0.06 -0c-2.14,0 -3.99,1.12 -4.82,2.74 -0.49,-0.2 -1.03,-0.33 -1.59,-0.37l0.01 0.07c-0.08,-0.57 -0.11,-1.12 -0.11,-1.64 0,-3.56 2.88,-6.44 6.44,-6.44z"/>
   <path class="fil1" d="M10.15 1.18c1.65,1.17 2.73,3.09 2.73,5.27 0,3.09 -3.01,7.4 -6.13,8.48 -0.08,0 -0.16,0.01 -0.25,0.01 -1.1,0 -2.11,-0.29 -2.96,-0.8 -0.09,0.13 -0.2,0.25 -0.31,0.37 -1.78,-1.25 -2.83,-4.01 -3.15,-6.49 0.57,0.04 1.1,0.17 1.59,0.37 0.83,-1.62 2.67,-2.74 4.82,-2.74l0.06 0c-0,-0.02 -0,-0.04 -0,-0.06 0,-2.04 1.5,-3.78 3.58,-4.4z"/>
   <path class="fil2" d="M12.85 5.75c0.02,0.23 0.04,0.46 0.04,0.69 0,3.56 -3.99,8.73 -7.55,8.73 -1.95,0 -3.36,-1.55 -4.24,-3.53 0.57,-0.38 1.28,-0.6 2.05,-0.6 0.52,0 1.02,0.1 1.46,0.29 0.62,-1.22 2.02,-2.07 3.63,-2.07l0.05 0c-0,-0.02 -0,-0.03 -0,-0.05 0,-1.94 1.78,-3.5 3.98,-3.5 0.2,0 0.39,0.01 0.58,0.04z"/>
   <path class="fil3" d="M3.55 16.38l2.14 0.28c0.1,0.01 0.19,0.11 0.15,0.2l-0.38 0.95c-0.04,0.09 -0.1,0.16 -0.2,0.15l-1.61 -0.21c-0.09,-0.01 -0.14,-0.1 -0.15,-0.2l-0.15 -1.02c-0.01,-0.09 0.1,-0.16 0.2,-0.15z"/>
  </g>
 </g>
</svg>
